<svg xmlns="http://www.w3.org/2000/svg" version="1.1" xmlns:xlink="http://www.w3.org/1999/xlink" xmlns:svgjs="http://svgjs.dev/svgjs" width="1000" height="224" viewBox="0 0 1000 224"><g transform="matrix(1,0,0,1,-0.6060606060606233,-0.6112868187053238)"><svg viewBox="0 0 396 89" data-background-color="#ffffff" preserveAspectRatio="xMidYMid meet" height="224" width="1000" xmlns="http://www.w3.org/2000/svg" xmlns:xlink="http://www.w3.org/1999/xlink"><g id="tight-bounds" transform="matrix(1,0,0,1,0.2400000000000091,0.2428773520748848)"><svg viewBox="0 0 395.52 88.49551382451591" height="88.49551382451591" width="395.52"><g><svg viewBox="0 0 395.52 88.49551382451591" height="88.49551382451591" width="395.52"><g transform="matrix(1,0,0,1,0,63.9352902459632)"><svg viewBox="0 0 395.52 24.5602235785527" height="24.5602235785527" width="395.52"><g id="textblocktransform"><svg viewBox="0 0 395.52 24.5602235785527" height="24.5602235785527" width="395.52" id="textblock"><g><svg viewBox="0 0 395.52 24.5602235785527" height="24.5602235785527" width="395.52"><g transform="matrix(1,0,0,1,0,0)"><svg width="395.52" viewBox="-0.17 -38.4 627.9599999999999 38.96" height="24.5602235785527" data-palette-color="#fce44d"><path d="M25.83 0L25.83-2.08 29.2-2.64 25.34-12.13 10.69-12.13 6.86-2.64 10.3-2.08 10.3 0-0.17 0-0.17-2.08 3.69-2.64 16.5-34.33 15.48-36.74 19.43-38.4 34.03-2.64 37.96-2.08 37.96 0 25.83 0ZM18.04-30.76L11.84-15.09 24.27-15.09 18.04-30.76ZM70.07 0L46.43-29.74 46.43-2.64 50.14-2.08 50.14 0 39.84 0 39.84-2.08 43.63-2.64 43.63-34.18 39.84-34.74 39.84-36.82 46.58-36.82 70.24-7.08 70.24-34.18 66.55-34.74 66.55-36.82 76.78-36.82 76.78-34.74 73.09-34.18 73.09 0 70.07 0ZM82.42-36.82L113.52-36.82 114.11-28.98 111.91-28.98 110.66-33.86 100.24-33.86 100.24-2.64 105.61-2.08 105.61 0 90.35 0 90.35-2.08 95.67-2.64 95.67-33.86 85.3-33.86 83.98-28.98 81.83-28.98 82.42-36.82ZM123.44-4.74Q121.06-7.2 119.83-10.56 118.6-13.92 118.6-17.35 118.6-20.78 119.28-23.41 119.96-26.05 121.17-28.22 122.38-30.4 124.08-32.1 125.77-33.81 127.8-34.99L127.8-34.99Q131.93-37.38 136.64-37.38 141.35-37.38 144.82-36 148.28-34.62 150.65-32.2L150.65-32.2Q155.46-27.29 155.46-19.31L155.46-19.31Q155.46-10.42 150.07-4.81L150.07-4.81Q147.58-2.22 144.27-0.83 140.96 0.56 136.87 0.56 132.78 0.56 129.3-0.85 125.82-2.27 123.44-4.74ZM127.02-29.93Q125.24-27.86 124.27-25.1 123.31-22.34 123.31-19.7 123.31-17.07 123.7-14.97 124.09-12.87 124.86-11 125.63-9.13 126.79-7.54 127.95-5.96 129.48-4.81L129.48-4.81Q132.76-2.37 137.2-2.37L137.2-2.37Q143.28-2.37 147.09-6.49L147.09-6.49Q150.82-10.55 150.82-17.07L150.82-17.07Q150.82-24.24 147.58-29L147.58-29Q143.86-34.45 136.74-34.45L136.74-34.45Q130.85-34.45 127.02-29.93L127.02-29.93ZM191.03 0L167.4-29.74 167.4-2.64 171.11-2.08 171.11 0 160.81 0 160.81-2.08 164.59-2.64 164.59-34.18 160.81-34.74 160.81-36.82 167.54-36.82 191.2-7.08 191.2-34.18 187.51-34.74 187.51-36.82 197.74-36.82 197.74-34.74 194.06-34.18 194.06 0 191.03 0ZM214.56-2.34L214.56-2.34Q216.37-2.34 217.85-2.7 219.32-3.05 220.4-3.81L220.4-3.81Q222.69-5.4 222.69-8.45L222.69-8.45Q222.69-11.04 221.01-12.7L221.01-12.7Q219.23-14.4 215.23-16.15 211.24-17.9 209.15-19.27 207.07-20.65 205.87-22.07L205.87-22.07Q203.7-24.56 203.7-28.1L203.7-28.1Q203.7-32.2 207.24-34.86L207.24-34.86Q210.53-37.38 215.22-37.38L215.22-37.38Q218.91-37.38 222.59-36.04L222.59-36.04Q224.13-35.42 225.38-34.69L225.38-34.69 224.52-28.17 222.47-28.17Q222.47-31.54 220.64-33.07 218.81-34.59 215.34-34.59L215.34-34.59Q210.56-34.59 208.8-31.47L208.8-31.47Q208.24-30.44 208.24-29.17 208.24-27.91 208.61-26.89 208.97-25.88 210.02-24.9L210.02-24.9Q212.07-22.92 217.74-20.56L217.74-20.56Q225.65-17.19 226.97-12.6L226.97-12.6Q227.36-11.16 227.36-9.53 227.36-7.91 226.81-6.46 226.26-5 225.3-3.87 224.35-2.73 223.1-1.9 221.84-1.07 220.42-0.54L220.42-0.54Q214.15 1.9 207.24-0.93L207.24-0.93Q204.72-1.98 202.8-3.49L202.8-3.49 203.82-10.5 205.9-10.5Q205.9-5.59 209-3.66L209-3.66Q211.12-2.34 214.56-2.34ZM273.93-31.23L273.93-31.23Q274.59-29.54 274.59-27.39 274.59-25.24 273.92-23.49 273.25-21.73 271.98-20.46L271.98-20.46Q269.56-18.04 264.88-17.07L264.88-17.07 265.31-17.87 274.96-3.22 276.67-2.47 280.11-2.08 280.11 0 271.74 0 260.75-17.55 262.8-16.67 256.26-16.67 256.26-2.64 259.92-2.08 259.92 0 247.96 0 247.96-2.08 251.74-2.64 251.74-34.18 247.96-34.74 247.96-36.82 259.99-36.82Q271.69-36.82 273.93-31.23ZM260.24-33.86L256.26-33.86 256.26-19.31 259.87-19.31Q267.78-19.31 269.44-23.93L269.44-23.93Q269.95-25.32 269.95-26.94 269.95-28.56 269.49-29.86 269.03-31.15 267.93-32.03L267.93-32.03Q265.66-33.86 260.24-33.86L260.24-33.86ZM305.38 0L305.38-2.08 308.74-2.64 304.89-12.13 290.24-12.13 286.41-2.64 289.85-2.08 289.85 0 279.37 0 279.37-2.08 283.23-2.64 296.05-34.33 295.02-36.74 298.98-38.4 313.58-2.64 317.51-2.08 317.51 0 305.38 0ZM297.59-30.76L291.39-15.09 303.81-15.09 297.59-30.76ZM344.8-31.23L344.8-31.23Q345.46-29.54 345.46-27.39 345.46-25.24 344.79-23.49 344.12-21.73 342.85-20.46L342.85-20.46Q340.43-18.04 335.74-17.07L335.74-17.07 336.18-17.87 345.83-3.22 347.54-2.47 350.98-2.08 350.98 0 342.6 0 331.62-17.55 333.67-16.67 327.13-16.67 327.13-2.64 330.79-2.08 330.79 0 318.83 0 318.83-2.08 322.61-2.64 322.61-34.18 318.83-34.74 318.83-36.82 330.86-36.82Q342.56-36.82 344.8-31.23ZM331.11-33.86L327.13-33.86 327.13-19.31 330.74-19.31Q338.65-19.31 340.31-23.93L340.31-23.93Q340.82-25.32 340.82-26.94 340.82-28.56 340.36-29.86 339.89-31.15 338.8-32.03L338.8-32.03Q336.53-33.86 331.11-33.86L331.11-33.86ZM370.43-15.09L369.7-17.65 360.72-17.65 360.72-2.93 374.32-2.93 376.07-7.25 377.93-7.25 377.12 0 352.42 0 352.42-2.08 356.13-2.64 356.13-34.18 352.42-34.74 352.42-36.82 376.05-36.82 376.61-29.57 374.46-29.57 373.14-33.86 360.72-33.86 360.72-20.58 369.7-20.58 370.43-23.17 372.17-23.17 372.17-15.09 370.43-15.09ZM420.82-13.94L420.82-16.58 435.25-16.58 435.25-13.94 433.88-13.94Q433.15-13.94 432.77-13.71 432.39-13.48 432.39-12.84L432.39-12.84 432.39-2.29Q430.63-2.29 428.49-1.56L428.49-1.56 425.36-0.54Q421.87 0.56 417.83 0.56 413.79 0.56 410.19-0.89 406.59-2.34 404.05-4.86 401.51-7.37 400.13-10.77 398.75-14.16 398.75-17.59 398.75-21.02 399.47-23.63 400.19-26.25 401.48-28.39 402.78-30.54 404.57-32.21 406.37-33.89 408.51-35.03L408.51-35.03Q412.93-37.38 418.13-37.38L418.13-37.38Q426.17-37.38 430.88-34.89L430.88-34.89 430.32-28.86 428.71-28.86Q428.71-31.1 425.92-32.69L425.92-32.69Q422.85-34.45 418.01-34.45L418.01-34.45Q411.74-34.45 407.59-29.93L407.59-29.93Q403.53-25.54 403.53-19.26L403.53-19.26Q403.53-12.38 407.34-7.54L407.34-7.54Q411.44-2.37 418.4-2.37L418.4-2.37Q426.07-2.37 427.44-5.66L427.44-5.66Q427.85-6.69 427.85-7.89L427.85-7.89 427.85-12.84Q427.85-13.5 427.47-13.72 427.09-13.94 426.46-13.94L426.46-13.94 420.82-13.94ZM457.29 0.56L457.29 0.56Q442.67 0.56 442.67-13.21L442.67-13.21 442.67-34.18 438.88-34.74 438.88-36.82 451.09-36.82 451.09-34.74 447.18-34.18 447.18-13.94Q447.18-4.93 452.92-2.98L452.92-2.98Q454.75-2.37 457.35-2.37 459.95-2.37 462.03-3.03 464.1-3.69 465.47-5.1L465.47-5.1Q468.18-7.91 468.18-13.94L468.18-13.94 468.18-34.18 464.45-34.74 464.45-36.82 474.67-36.82 474.67-34.74 470.99-34.18 470.99-13.21Q470.99-6.62 467.45-3.03 463.91 0.56 457.29 0.56ZM477.89-34.74L477.89-36.82 489.86-36.82 489.86-34.74 486.17-34.18 486.17-2.64 489.86-2.08 489.86 0 477.89 0 477.89-2.08 481.65-2.64 481.65-34.18 477.89-34.74ZM495.42-36.82L526.53-36.82 527.11-28.98 524.91-28.98 523.67-33.86 513.24-33.86 513.24-2.64 518.61-2.08 518.61 0 503.36 0 503.36-2.08 508.68-2.64 508.68-33.86 498.3-33.86 496.98-28.98 494.84-28.98 495.42-36.82ZM555.55 0L555.55-2.08 558.92-2.64 555.06-12.13 540.41-12.13 536.58-2.64 540.02-2.08 540.02 0 529.55 0 529.55-2.08 533.41-2.64 546.22-34.33 545.2-36.74 549.15-38.4 563.75-2.64 567.68-2.08 567.68 0 555.55 0ZM547.76-30.76L541.56-15.09 553.99-15.09 547.76-30.76ZM594.98-31.23L594.98-31.23Q595.64-29.54 595.64-27.39 595.64-25.24 594.96-23.49 594.29-21.73 593.02-20.46L593.02-20.46Q590.61-18.04 585.92-17.07L585.92-17.07 586.36-17.87 596-3.22 597.71-2.47 601.15-2.08 601.15 0 592.78 0 581.79-17.55 583.84-16.67 577.3-16.67 577.3-2.64 580.96-2.08 580.96 0 569 0 569-2.08 572.78-2.64 572.78-34.18 569-34.74 569-36.82 581.04-36.82Q592.73-36.82 594.98-31.23ZM581.28-33.86L577.3-33.86 577.3-19.31 580.91-19.31Q588.82-19.31 590.48-23.93L590.48-23.93Q591-25.32 591-26.94 591-28.56 590.53-29.86 590.07-31.15 588.97-32.03L588.97-32.03Q586.7-33.86 581.28-33.86L581.28-33.86ZM614.99-2.34L614.99-2.34Q616.8-2.34 618.28-2.7 619.75-3.05 620.83-3.81L620.83-3.81Q623.12-5.4 623.12-8.45L623.12-8.45Q623.12-11.04 621.44-12.7L621.44-12.7Q619.66-14.4 615.67-16.15 611.67-17.9 609.59-19.27 607.5-20.65 606.3-22.07L606.3-22.07Q604.13-24.56 604.13-28.1L604.13-28.1Q604.13-32.2 607.67-34.86L607.67-34.86Q610.97-37.38 615.65-37.38L615.65-37.38Q619.34-37.38 623.03-36.04L623.03-36.04Q624.56-35.42 625.81-34.69L625.81-34.69 624.95-28.17 622.9-28.17Q622.9-31.54 621.07-33.07 619.24-34.59 615.78-34.59L615.78-34.59Q610.99-34.59 609.23-31.47L609.23-31.47Q608.67-30.44 608.67-29.17 608.67-27.91 609.04-26.89 609.4-25.88 610.45-24.9L610.45-24.9Q612.5-22.92 618.17-20.56L618.17-20.56Q626.08-17.19 627.4-12.6L627.4-12.6Q627.79-11.16 627.79-9.53 627.79-7.91 627.24-6.46 626.69-5 625.74-3.87 624.78-2.73 623.53-1.9 622.27-1.07 620.85-0.54L620.85-0.54Q614.58 1.9 607.67-0.93L607.67-0.93Q605.16-1.98 603.23-3.49L603.23-3.49 604.25-10.5 606.33-10.5Q606.33-5.59 609.43-3.66L609.43-3.66Q611.55-2.34 614.99-2.34Z" opacity="1" transform="matrix(1,0,0,1,0,0)" fill="#fce44d" class="wordmark-text-0" data-fill-palette-color="primary" id="text-0"></path></svg></g></svg></g></svg></g></svg></g><g transform="matrix(1,0,0,1,171.5904342185488,0)"><svg viewBox="0 0 52.33913156290239 52.33913156290239" height="52.33913156290239" width="52.33913156290239"><g><svg></svg></g><g id="icon-0"><svg viewBox="0 0 52.33913156290239 52.33913156290239" height="52.33913156290239" width="52.33913156290239"><g><path d="M0 26.17c0-14.453 11.717-26.17 26.17-26.17 14.453 0 26.17 11.717 26.169 26.17 0 14.453-11.717 26.17-26.169 26.169-14.453 0-26.17-11.717-26.17-26.169zM26.17 50.124c13.23 0 23.955-10.725 23.954-23.954 0-13.23-10.725-23.955-23.954-23.955-13.23 0-23.955 10.725-23.955 23.955 0 13.23 10.725 23.955 23.955 23.954z" data-fill-palette-color="accent" fill="#fce44d" stroke="transparent"></path><ellipse rx="25.90787012363668" ry="25.90787012363668" cx="26.169565781451194" cy="26.169565781451194" fill="#fce44d" stroke="transparent" stroke-width="0" fill-opacity="1" data-fill-palette-color="accent"></ellipse></g><g transform="matrix(1,0,0,1,18.040979917936987,17.872988952349083)"><svg viewBox="0 0 16.25717172702841 16.593153658204226" height="16.593153658204226" width="16.25717172702841"><g><svg version="1.1" xmlns="http://www.w3.org/2000/svg" xmlns:xlink="http://www.w3.org/1999/xlink" x="0" y="0" viewBox="2.0802861683697387 0.9566365026918304 97.97257123361682 99.99734000877865" enable-background="new 2.081 0.955 97.971 100" xml:space="preserve" width="16.25717172702841" height="16.593153658204226" class="icon-z$-0" data-fill-palette-color="quaternary" id="z$-0"><g fill="#ffffff" data-fill-palette-color="quaternary"><path d="M96.52 10.078c0 0-0.23 0.065-0.325 0.187l-0.341-0.188-0.346 0.22-0.111-0.143c3.789-5.614 5.061-6.651 4.547-7.878-0.191-0.457-0.879-1.152-1.189-1.217-0.331-0.068-0.612-0.173-1.054-0.034-0.677 0.212-2.521 1.102-3.174 1.382-0.145 0.062-0.665 0.305-1.373 0.639 0.016-0.011 0.035-0.023 0.035-0.023l-0.561-1.059c0 0-0.497 0.125-0.683 0.187-0.188 0.062-0.591 0.405-0.778 0.561-0.188 0.157-0.125 0.218 0 0.405 0.124 0.187 0.43 0.498 0.53 0.549 0.03 0.016 0.073 0.016 0.119 0.014-0.534 0.254-1.104 0.525-1.685 0.801l-0.556-1.047c0 0-0.497 0.124-0.685 0.187-0.186 0.062-0.591 0.404-0.776 0.561-0.188 0.155-0.126 0.216 0 0.403 0.108 0.166 0.381 0.483 0.489 0.624C88 5.492 87.43 5.764 86.938 5.999l-0.557-1.055c0 0-0.496 0.125-0.684 0.187-0.189 0.062-0.592 0.405-0.779 0.56-0.186 0.155-0.123 0.218 0 0.405s0.59 0.436 0.654 0.529c0.006 0.008 0.031 0.003 0.054 0-0.162 0.077-0.288 0.138-0.33 0.157-0.174 0.082-0.762 0.388-0.749 0.442 0.051 0.216 0.396 0.463 0.408 1.202 0.023 1.47-0.116 1.773-0.618 2.287-0.705 0.722-31.564 31.05-32.029 31.401-0.571 0.429-1.11 1.141-3.687 0.922-0.061-0.006-0.397 0.012-1.588 0.595-1.378 0.677-43.19 23.427-43.91 23.852-0.77 0.455-0.958 1.339-1.026 1.656-0.06 0.277 0.027 1.374 0.501 1.833 0.699 0.676 1.675 0.994 2.503 1.107 0.035 0.005 0.37-0.028 0.916-0.089v0.264c0 0-0.233 0.048-0.303 0.163-0.069 0.116-0.116 0.233 0.152 0.327 0.268 0.094 0.828 0 0.921 0 0.094 0 0.35-0.094 0.233-0.257s-0.256-0.069-0.279-0.279C6.733 72.13 6.725 72.02 6.717 71.91c5.332-0.612 22.047-2.673 22.393-2.479 0.852 0.478 1.363 0.694 1.75 1.878 0.194 0.594 0.607 1.062-0.129 7.504-0.903 7.916-1.341 14.281-1.341 14.281-0.373 3.736-0.743 5.997-0.06 6.745 0.442 0.483 1.427 0.969 1.797 1.039 0.624 0.117 1.726 0.13 2.264-0.188 1.202-0.711 0.39 0.027 3.956-7.328 4.48-9.239 18.116-39.73 18.97-41.054 0.622-0.963 0.519-2.955 0.519-2.955 0.188-1.119 0.57-2.21 0.852-2.583 0.279-0.373 1.025-1.4 1.025-1.4s0.094-1.12 0.467-1.68c0.373-0.561 28.004-29.405 28.004-29.405s1.854-1.089 4.202-0.187c0.598 0.23 1.165 0.429 1.557-0.187 0.186-0.293 0.366-0.578 0.542-0.854 0.016-0.024 0.029-0.044 0.045-0.068 0.011 0.008 0.023 0.017 0.05 0.035 0.129 0.093 0.014 0.271 0.116 0.35 0.155 0.117 0.257 0.303 0.257 0.303s0.543 0.64 0.886 0.888c0.338 0.244 0.403 0.233 0.631 0.047 0.268-0.223 0.586-0.754 0.586-0.754l0.138-0.658c0 0-0.247-0.127-0.701-0.303-0.434-0.168-0.35-0.199-0.7-0.198 0 0-0.233 0.065-0.327 0.187l-0.337-0.189-0.347 0.219-0.111-0.141c0.567-0.879 1.097-1.683 1.581-2.405 0.002 0.001 0.005 0.003 0.005 0.003l0.002-0.003c-0.001-0.001-0.003-0.002-0.005-0.003 0.006-0.009 0.013-0.019 0.019-0.027l-0.014 0.03c0.011 0.007 0.024 0.017 0.05 0.035 0.129 0.093 0.014 0.273 0.118 0.35 0.152 0.116 0.255 0.302 0.255 0.302s0.546 0.64 0.888 0.888c0.339 0.246 0.404 0.233 0.629 0.047 0.271-0.221 0.589-0.753 0.589-0.753l0.135-0.658c0 0-0.247-0.129-0.7-0.304C96.785 10.107 96.871 10.076 96.52 10.078z" fill="#ffffff" data-fill-palette-color="quaternary"></path><path d="M97.214 7.783l0.001-0.002C97.168 7.748 97.214 7.783 97.214 7.783z" fill="#ffffff" data-fill-palette-color="quaternary"></path><path d="M98.479 7.49c0 0-0.233 0.064-0.327 0.187l-0.339-0.189-0.348 0.22-0.133-0.169-0.117 0.243c0.012 0.008 0.023 0.017 0.049 0.035 0.129 0.094 0.013 0.273 0.118 0.35 0.154 0.117 0.255 0.303 0.255 0.303s0.545 0.64 0.888 0.888c0.338 0.245 0.403 0.233 0.631 0.047 0.268-0.222 0.587-0.754 0.587-0.754l0.135-0.658c0 0-0.245-0.127-0.7-0.304C98.741 7.52 98.828 7.488 98.479 7.49z" fill="#ffffff" data-fill-palette-color="quaternary"></path></g></svg></g></svg></g></svg></g></svg></g><g></g></svg></g><defs></defs></svg><rect width="395.52" height="88.49551382451591" fill="none" stroke="none" visibility="hidden"></rect></g></svg></g></svg>